<?xml version="1.0" encoding="UTF-8"?>
<svg id="Layer_2" data-name="Layer 2" xmlns="http://www.w3.org/2000/svg" xmlns:xlink="http://www.w3.org/1999/xlink" viewBox="0 0 309.97 92.74">
  <defs>
    <style>
      .cls-1 {
        fill: #4a8cdd;
      }

      .cls-2 {
        fill: #4573a8;
      }

      .cls-3 {
        fill: url(#linear-gradient);
      }
    </style>
    <linearGradient id="linear-gradient" x1="135.33" y1="15.27" x2="135.33" y2="15.89" gradientTransform="translate(0 94.74) scale(1 -1)" gradientUnits="userSpaceOnUse">
      <stop offset="0" stop-color="#5389c8"/>
      <stop offset=".62" stop-color="#5289c9"/>
      <stop offset=".84" stop-color="#4f8ad0"/>
      <stop offset=".99" stop-color="#4a8bdc"/>
      <stop offset="1" stop-color="#4a8cdd"/>
    </linearGradient>
  </defs>
  <g id="Layer_1-2" data-name="Layer 1">
    <g>
      <path class="cls-3" d="M135.52,79.47h-.39c.15-.18,.25-.39,.32-.62,.03,.2,.05,.42,.08,.62h-.01Z"/>
      <g>
        <path class="cls-1" d="M157.34,32.66c2.39-4.4,5.7-7.81,9.93-10.24,4.23-2.42,9.08-3.63,14.54-3.63,7.03,0,12.85,1.76,17.45,5.27,4.61,3.52,7.69,8.45,9.26,14.79h-15.46c-.82-2.46-2.2-4.38-4.15-5.78-1.94-1.4-4.35-2.1-7.22-2.1-4.09,0-7.34,1.48-9.72,4.45-2.39,2.97-3.58,7.18-3.58,12.64s1.19,9.57,3.58,12.54c2.39,2.97,5.63,4.45,9.72,4.45,5.8,0,9.59-2.59,11.36-7.78h15.46c-1.57,6.14-4.68,11.02-9.32,14.64-4.64,3.62-10.44,5.43-17.4,5.43-5.46,0-10.31-1.21-14.54-3.63s-7.54-5.83-9.93-10.24c-2.39-4.4-3.58-9.54-3.58-15.41s1.19-11,3.58-15.41h.02Z"/>
        <path class="cls-1" d="M213.7,32.6c2.29-4.44,5.41-7.85,9.37-10.24s8.36-3.58,13.21-3.58c3.69,0,7.2,.8,10.54,2.41,3.34,1.6,6,3.74,7.98,6.4V.67h14.54V76.42h-14.54v-8.39c-1.78,2.8-4.27,5.05-7.47,6.76-3.21,1.71-6.93,2.56-11.16,2.56-4.78,0-9.15-1.23-13.1-3.69-3.96-2.46-7.08-5.92-9.37-10.39-2.29-4.47-3.43-9.6-3.43-15.41s1.14-10.82,3.43-15.25h0Zm39.15,6.49c-1.37-2.49-3.21-4.4-5.53-5.73s-4.81-2-7.47-2-5.12,.65-7.37,1.94c-2.25,1.3-4.08,3.19-5.48,5.68-1.4,2.49-2.1,5.44-2.1,8.85s.7,6.4,2.1,8.96c1.4,2.56,3.24,4.52,5.53,5.89s4.72,2.05,7.32,2.05,5.15-.67,7.47-2c2.32-1.33,4.16-3.24,5.53-5.73,1.36-2.49,2.05-5.48,2.05-8.96s-.68-6.47-2.05-8.96h0Z"/>
        <path class="cls-1" d="M299.78,21.45c2.97-1.71,6.36-2.56,10.19-2.56v15.05h-3.79c-4.5,0-7.9,1.06-10.19,3.17-2.29,2.12-3.43,5.8-3.43,11.06v28.25h-14.33V19.71h14.33v8.8c1.84-3,4.25-5.36,7.22-7.06h0Z"/>
      </g>
      <g>
        <path class="cls-2" d="M155.17,83.32v3.49h3.8v1.12h-3.8v3.59h4.25v1.12h-5.61v-10.45h5.61v1.12h-4.25Z"/>
        <path class="cls-2" d="M169.69,92.64h-1.36l-5.48-8.31v8.31h-1.36v-10.45h1.36l5.48,8.29v-8.29h1.36v10.45Z"/>
        <path class="cls-2" d="M179.91,85.23c-.29-.61-.71-1.08-1.26-1.41-.55-.33-1.19-.5-1.92-.5s-1.38,.17-1.97,.5c-.58,.33-1.04,.81-1.38,1.44-.33,.62-.5,1.34-.5,2.16s.17,1.54,.5,2.16,.79,1.1,1.38,1.43c.58,.33,1.24,.5,1.97,.5,1.02,0,1.86-.3,2.51-.91,.66-.61,1.04-1.43,1.15-2.47h-4.16v-1.11h5.61v1.05c-.08,.86-.35,1.64-.81,2.36-.46,.71-1.06,1.28-1.81,1.69s-1.58,.62-2.5,.62c-.97,0-1.85-.23-2.65-.68-.8-.45-1.43-1.09-1.89-1.89-.46-.81-.7-1.72-.7-2.74s.23-1.93,.7-2.75c.46-.81,1.1-1.45,1.89-1.9,.8-.45,1.68-.68,2.65-.68,1.11,0,2.09,.27,2.94,.82,.85,.55,1.47,1.32,1.86,2.32h-1.61Z"/>
        <path class="cls-2" d="M185.02,82.21v10.43h-1.36v-10.43h1.36Z"/>
        <path class="cls-2" d="M195.54,92.64h-1.36l-5.48-8.31v8.31h-1.36v-10.45h1.36l5.48,8.29v-8.29h1.36v10.45Z"/>
        <path class="cls-2" d="M199.22,83.32v3.49h3.8v1.12h-3.8v3.59h4.25v1.12h-5.61v-10.45h5.61v1.12h-4.25Z"/>
        <path class="cls-2" d="M206.9,83.32v3.49h3.8v1.12h-3.8v3.59h4.25v1.12h-5.61v-10.45h5.61v1.12h-4.25Z"/>
        <path class="cls-2" d="M218.72,92.64l-2.48-4.27h-1.65v4.27h-1.36v-10.43h3.37c.79,0,1.45,.13,2,.4,.54,.27,.95,.63,1.22,1.09s.4,.98,.4,1.57c0,.72-.21,1.35-.62,1.9s-1.04,.91-1.86,1.09l2.62,4.37h-1.64Zm-4.13-5.35h2.01c.74,0,1.29-.18,1.66-.55,.37-.36,.55-.85,.55-1.46s-.18-1.1-.55-1.44c-.36-.34-.92-.51-1.67-.51h-2.01v3.95h.01Z"/>
        <path class="cls-2" d="M223.78,92.38c-.54-.24-.97-.58-1.28-1.02-.31-.43-.47-.94-.48-1.5h1.45c.05,.49,.25,.9,.61,1.24,.35,.33,.87,.5,1.55,.5s1.16-.16,1.53-.49c.37-.32,.56-.74,.56-1.25,0-.4-.11-.72-.33-.97s-.49-.44-.82-.57c-.33-.13-.77-.27-1.33-.42-.69-.18-1.24-.36-1.65-.54-.41-.18-.77-.46-1.06-.85-.29-.38-.44-.9-.44-1.55,0-.57,.14-1.07,.43-1.51,.29-.44,.7-.78,1.22-1.02s1.13-.36,1.8-.36c.98,0,1.78,.24,2.4,.73,.62,.49,.98,1.14,1.06,1.95h-1.5c-.05-.4-.26-.75-.63-1.06-.37-.3-.86-.46-1.47-.46-.57,0-1.03,.15-1.39,.44-.36,.29-.54,.71-.54,1.24,0,.38,.11,.69,.32,.93,.21,.24,.48,.42,.79,.55,.31,.12,.76,.27,1.32,.43,.69,.19,1.24,.38,1.66,.56s.78,.47,1.08,.85,.45,.91,.45,1.56c0,.51-.13,.99-.4,1.44s-.67,.81-1.2,1.09-1.15,.42-1.87,.42-1.3-.12-1.85-.37h.01Z"/>
        <path class="cls-2" d="M241.27,90.32h-4.55l-.84,2.32h-1.44l3.77-10.37h1.57l3.76,10.37h-1.44l-.84-2.32h0Zm-.39-1.11l-1.89-5.27-1.89,5.27h3.78Z"/>
        <path class="cls-2" d="M246.53,82.21v6.6c0,.93,.23,1.62,.68,2.07,.45,.45,1.09,.67,1.89,.67s1.42-.22,1.88-.67c.45-.45,.68-1.14,.68-2.07v-6.6h1.36v6.59c0,.87-.17,1.6-.52,2.19-.35,.59-.82,1.04-1.41,1.32-.59,.29-1.26,.43-2,.43s-1.4-.14-2-.43c-.59-.29-1.06-.73-1.41-1.32-.34-.59-.52-1.32-.52-2.19v-6.59h1.37Z"/>
        <path class="cls-2" d="M256.76,92.38c-.54-.24-.97-.58-1.28-1.02-.31-.43-.47-.94-.48-1.5h1.45c.05,.49,.25,.9,.61,1.24,.35,.33,.87,.5,1.55,.5s1.16-.16,1.53-.49c.37-.32,.56-.74,.56-1.25,0-.4-.11-.72-.33-.97s-.49-.44-.82-.57c-.33-.13-.77-.27-1.33-.42-.69-.18-1.24-.36-1.65-.54-.41-.18-.77-.46-1.06-.85-.29-.38-.44-.9-.44-1.55,0-.57,.14-1.07,.43-1.51,.29-.44,.7-.78,1.22-1.02s1.13-.36,1.8-.36c.98,0,1.78,.24,2.4,.73,.62,.49,.98,1.14,1.06,1.95h-1.5c-.05-.4-.26-.75-.63-1.06-.37-.3-.86-.46-1.47-.46-.57,0-1.03,.15-1.39,.44-.36,.29-.54,.71-.54,1.24,0,.38,.11,.69,.32,.93,.21,.24,.48,.42,.79,.55,.31,.12,.76,.27,1.32,.43,.69,.19,1.24,.38,1.66,.56s.78,.47,1.08,.85,.45,.91,.45,1.56c0,.51-.13,.99-.4,1.44s-.67,.81-1.2,1.09-1.15,.42-1.87,.42-1.3-.12-1.85-.37h.01Z"/>
        <path class="cls-2" d="M270.51,82.21v1.11h-2.84v9.33h-1.36v-9.33h-2.86v-1.11h7.06Z"/>
        <path class="cls-2" d="M277.68,92.64l-2.48-4.27h-1.65v4.27h-1.36v-10.43h3.37c.79,0,1.45,.13,2,.4,.54,.27,.95,.63,1.22,1.09s.4,.98,.4,1.57c0,.72-.21,1.35-.62,1.9s-1.04,.91-1.86,1.09l2.62,4.37h-1.64Zm-4.13-5.35h2.01c.74,0,1.29-.18,1.66-.55,.37-.36,.55-.85,.55-1.46s-.18-1.1-.55-1.44c-.36-.34-.92-.51-1.67-.51h-2.01v3.95h.01Z"/>
        <path class="cls-2" d="M287.46,90.32h-4.55l-.84,2.32h-1.44l3.77-10.37h1.57l3.76,10.37h-1.44l-.84-2.32h0Zm-.39-1.11l-1.89-5.27-1.89,5.27h3.78Z"/>
        <path class="cls-2" d="M292.74,91.54h3.65v1.11h-5.01v-10.43h1.36v9.33h0Z"/>
        <path class="cls-2" d="M299.21,82.21v10.43h-1.36v-10.43h1.36Z"/>
        <path class="cls-2" d="M307.69,90.32h-4.55l-.84,2.32h-1.44l3.77-10.37h1.57l3.76,10.37h-1.44l-.84-2.32h0Zm-.39-1.11l-1.89-5.27-1.89,5.27h3.78Z"/>
      </g>
      <path class="cls-1" d="M138.12,90.07H12.61c-1.35,0-2.68-.13-3.95-.6-3.87-1.43-6.23-5.2-6.26-9.25,0-2.57-.03-5.15,0-7.73,.04-4.19,2.62-8.04,6.7-9.31,1.96-.62,4.1-.46,6.13-.46h122.89c.38,0,.68-.15,.87-.37,.11-.14,.19-.31,.24-.47,.09-.34,.05-.71-.11-1.01,0,0,0,0,0,0-.19-1.43-.42-2.84-.69-4.26-5.15-26.43-25.17-47.57-51.02-54.32V15.53c0,1.52-1.24,2.76-2.75,2.76h-1.22c-1.53,0-2.76-1.25-2.76-2.76V.85c-3.59-.56-7.27-.85-11.02-.85s-7.43,.29-11.02,.85V15.53c0,1.52-1.25,2.76-2.76,2.76h-1.22c-1.52,0-2.76-1.25-2.76-2.76V2.27C26.05,9.03,6.03,30.17,.88,56.6c-.34,1.73-.61,3.48-.82,5.22-.03,.18-.04,.34-.06,.52v14.04c0,1.31,0,2.64,.03,3.95,.04,4.26,2.18,8.24,5.87,10.45,2.73,1.64,5.61,1.71,8.61,1.71h123.64c1.54,0,1.55-2.42,0-2.42h-.03ZM5.37,62.35h.1c-.05,.03-.11,.06-.17,.09l.06-.09h.01Z"/>
      <g>
        <path class="cls-2" d="M138.11,70.18H26.23c-5.16,0-10.36-.19-15.52,0h-.22c-1.56,0-1.57,2.43,0,2.43H122.37c5.16,0,10.36,.19,15.52,0h.22c1.56,0,1.57-2.43,0-2.43h0Z"/>
        <path class="cls-2" d="M138.11,80.08H26.23c-5.16,0-10.36-.19-15.52,0h-.22c-1.56,0-1.57,2.43,0,2.43H122.37c5.16,0,10.36,.19,15.52,0h.22c1.56,0,1.57-2.43,0-2.43h0Z"/>
      </g>
    </g>
  </g>
</svg>