<?xml version="1.0" encoding="UTF-8"?>
<svg id="Layer_2" data-name="Layer 2" xmlns="http://www.w3.org/2000/svg" xmlns:xlink="http://www.w3.org/1999/xlink" viewBox="0 0 139.31 92.49">
  <defs>
    <style>
      .cls-1 {
        fill: #4a8cdd;
      }

      .cls-2 {
        fill: #4573a8;
      }

      .cls-3 {
        fill: url(#linear-gradient);
      }
    </style>
    <linearGradient id="linear-gradient" x1="135.35" y1="79.47" x2="135.35" y2="78.85" gradientUnits="userSpaceOnUse">
      <stop offset="0" stop-color="#5389c8"/>
      <stop offset=".62" stop-color="#5289c9"/>
      <stop offset=".84" stop-color="#4f8ad0"/>
      <stop offset=".99" stop-color="#4a8bdc"/>
      <stop offset="1" stop-color="#4a8cdd"/>
    </linearGradient>
  </defs>
  <g id="Layer_1-2" data-name="Layer 1">
    <g>
      <path class="cls-3" d="M135.55,79.47h-.39c.15-.18,.25-.39,.32-.62,.03,.2,.05,.42,.08,.62Z"/>
      <path class="cls-1" d="M138.15,90.07H12.64c-1.35,0-2.68-.13-3.95-.6-3.87-1.43-6.23-5.2-6.26-9.25,0-2.57-.03-5.15,0-7.73,.04-4.19,2.62-8.04,6.7-9.31,1.96-.62,4.1-.46,6.13-.46h122.89c.38,0,.68-.15,.87-.37,.11-.14,.19-.31,.24-.47,.09-.34,.05-.71-.11-1.01,0-.01-.01-.01-.01-.01-.19-1.43-.42-2.84-.69-4.26-5.15-26.43-25.17-47.57-51.02-54.32V15.53c0,1.52-1.24,2.76-2.75,2.76h-1.22c-1.53,0-2.76-1.25-2.76-2.76V.85c-3.59-.56-7.27-.85-11.02-.85s-7.43,.29-11.02,.85V15.53c0,1.52-1.25,2.76-2.76,2.76h-1.22c-1.52,0-2.76-1.25-2.76-2.76V2.27C26.05,9.03,6.03,30.17,.88,56.6c-.34,1.73-.61,3.48-.82,5.22-.03,.18-.04,.34-.06,.52v14.04c0,1.31,0,2.64,.03,3.95,.04,4.26,2.18,8.24,5.87,10.45,2.73,1.64,5.61,1.71,8.61,1.71h123.64c1.54,0,1.55-2.42,0-2.42ZM5.4,62.35h.1c-.05,.03-.11,.06-.17,.09l.06-.09Z"/>
      <g>
        <path class="cls-2" d="M138.14,70.18c-4.24,0-8.48,0-12.72,0-10.18,0-20.36,0-30.54,0-12.27,0-24.53,0-36.8,0-10.61,0-21.21,0-31.82,0-5.16,0-10.36-.19-15.52,0-.07,0-.14,0-.22,0-1.56,0-1.57,2.43,0,2.43,4.24,0,8.48,0,12.72,0,10.18,0,20.36,0,30.54,0,12.27,0,24.53,0,36.8,0,10.61,0,21.21,0,31.82,0,5.16,0,10.36,.19,15.52,0,.07,0,.14,0,.22,0,1.56,0,1.57-2.43,0-2.43h0Z"/>
        <path class="cls-2" d="M138.14,80.07c-4.24,0-8.48,0-12.72,0-10.18,0-20.36,0-30.54,0-12.27,0-24.53,0-36.8,0-10.61,0-21.21,0-31.82,0-5.16,0-10.36-.19-15.52,0-.07,0-.14,0-.22,0-1.56,0-1.57,2.43,0,2.43h12.72c10.18,0,20.36,0,30.54,0,12.27,0,24.53,0,36.8,0,10.61,0,21.21,0,31.82,0,5.16,0,10.36,.19,15.52,0,.07,0,.14,0,.22,0,1.56,0,1.57-2.43,0-2.43h0Z"/>
      </g>
    </g>
  </g>
</svg>