<svg width="2187" height="724" viewBox="0 0 2187 724" fill="none" xmlns="http://www.w3.org/2000/svg">
<path d="M2186.78 271.299C2101.6 231.187 1880.4 169.13 1677.05 241.794C1422.85 332.623 1795.09 587.755 1434.92 598.169C1074.76 608.582 1015.07 349.401 726.664 635.773C438.263 922.146 338.329 405.518 80.7797 509.654" stroke="white"/>
<path d="M2159.95 225.016C2074.77 184.905 1853.57 122.848 1650.22 195.511C1396.02 286.341 1768.26 541.473 1408.1 551.886C1047.93 562.3 988.237 303.118 699.836 589.491C411.435 875.863 311.5 359.236 53.9513 463.371" stroke="white"/>
<path d="M2133.12 178.734C2047.94 138.623 1826.75 76.5655 1623.39 149.229C1369.2 240.058 1741.43 495.19 1381.27 505.604C1021.1 516.017 961.409 256.836 673.008 543.208C384.607 829.581 284.672 312.953 27.1235 417.089" stroke="white"/>
<path d="M2106.29 132.452C2021.12 92.3401 1799.92 30.2831 1596.56 102.947C1342.37 193.776 1714.61 448.908 1354.44 459.321C994.273 469.735 934.581 210.553 646.18 496.926C357.779 783.299 257.844 266.671 0.295349 370.806" stroke="white"/>
<path d="M2186.77 489.083C2101.58 532.436 1880.38 599.508 1677.02 520.973C1422.81 422.803 1795.06 147.053 1434.88 135.798C1074.7 124.542 1015.01 404.67 726.597 95.1541C438.185 -214.362 338.246 344.017 80.6876 231.466" stroke="white"/>
<path d="M2159.94 539.106C2074.76 582.459 1853.55 649.531 1650.19 570.995C1395.98 472.826 1768.23 197.075 1408.05 185.82C1047.87 174.565 988.179 454.693 699.767 145.177C411.355 -164.339 311.417 394.04 53.8582 281.489" stroke="white"/>
<path d="M2133.11 589.129C2047.93 632.482 1826.72 699.554 1623.36 621.018C1369.15 522.849 1741.4 247.098 1381.23 235.843C1021.05 224.588 961.351 504.715 672.939 195.2C384.526 -114.316 284.588 444.063 27.0296 331.512" stroke="white"/>
<path d="M2106.28 639.151C2021.1 682.505 1799.89 749.577 1596.53 671.041C1342.32 572.871 1714.58 297.121 1354.4 285.866C994.216 274.611 934.521 554.738 646.109 245.222C357.697 -64.2935 257.759 494.085 0.200195 381.534" stroke="white"/>
</svg>
