<?xml version="1.0" encoding="UTF-8"?>
<svg id="Layer_2" data-name="Layer 2" xmlns="http://www.w3.org/2000/svg" viewBox="0 0 285.37 72.06">
  <defs>
    <style>
      .cls-1 {
        fill: #3a4cef;
      }

      .cls-2 {
        fill: #aaa;
      }
    </style>
  </defs>
  <g id="Layer_1-2" data-name="Layer 1">
    <g>
      <path class="cls-2" d="M104.24,71.81v-.17h.07c.4,0,.72-.12,.97-.37s.37-.57,.37-.97v-9.5c0-.4-.12-.72-.37-.97s-.57-.37-.97-.37h-.07v-.17h5.33v.17h-.03c-.4,0-.72,.12-.97,.37s-.37,.57-.37,.97v3.86h5.5v-3.86c0-.4-.12-.72-.37-.97s-.57-.37-.97-.37h-.05v-.17h5.33v.17h-.05c-.4,0-.72,.12-.97,.37s-.37,.57-.37,.97v9.5c0,.4,.12,.72,.37,.97s.57,.37,.97,.37h.05v.17h-5.33v-.17h.05c.4,0,.72-.12,.97-.37s.37-.57,.37-.97v-5.4h-5.5v5.4c0,.4,.12,.72,.37,.97s.57,.37,.97,.37h.03v.17h-5.33Z"/>
      <path class="cls-2" d="M125.41,72.04c-1.33,0-2.5-.27-3.51-.81s-1.79-1.29-2.35-2.27c-.56-.97-.84-2.11-.84-3.41s.28-2.44,.84-3.41,1.34-1.73,2.35-2.27c1-.54,2.17-.81,3.51-.81s2.5,.27,3.51,.81,1.79,1.29,2.35,2.27c.56,.97,.84,2.11,.84,3.41s-.28,2.43-.84,3.41c-.56,.97-1.34,1.73-2.35,2.27-1,.54-2.17,.81-3.51,.81Zm0-.27c.58,0,1.11-.15,1.58-.45,.48-.3,.89-.72,1.23-1.27,.33-.54,.59-1.2,.77-1.97,.18-.77,.28-1.62,.28-2.55s-.09-1.79-.28-2.56c-.18-.77-.44-1.43-.77-1.97-.35-.54-.76-.97-1.23-1.27-.48-.3-1-.45-1.58-.45s-1.11,.15-1.58,.45c-.48,.3-.88,.72-1.22,1.27-.34,.54-.61,1.2-.79,1.97s-.28,1.62-.28,2.56,.09,1.78,.28,2.55c.18,.77,.45,1.42,.79,1.97,.33,.54,.74,.97,1.22,1.27s1,.45,1.58,.45Z"/>
      <path class="cls-2" d="M138.09,72.06l-4.3-10.76c-.48-1.21-1.01-1.82-1.6-1.82h-.05v-.17h5.28v.17h-.07c-.5,0-.83,.15-1,.46s-.14,.72,.07,1.26l2.95,7.51,1.75-4.33-1.1-3.08c-.21-.6-.46-1.05-.76-1.36s-.66-.46-1.11-.46h-.03v-.17h5.35v.17h-.07c-.48,0-.79,.15-.93,.45-.14,.3-.13,.72,.05,1.27l2.55,7.51,2.85-7.5c.19-.5,.17-.91-.06-1.22s-.62-.49-1.19-.51v-.17h3.05v.17c-.3,0-.58,.14-.84,.43-.26,.29-.47,.66-.64,1.1l-4.25,11.05h-.13l-2.63-7.36-2.98,7.36h-.16Z"/>
      <path class="cls-2" d="M156.51,71.81l.02-.17h.02c.4,0,.72-.12,.97-.37s.37-.57,.37-.97v-10.76h-.48c-.54,0-1.08,.09-1.6,.26-.52,.17-.97,.48-1.35,.93-.38,.45-.63,1.1-.77,1.94h-.17l.47-3.37h10.38l.48,3.37h-.17c-.13-.83-.39-1.48-.78-1.93s-.84-.77-1.37-.94-1.08-.26-1.64-.26h-.43v10.76c0,.4,.12,.72,.37,.97s.57,.37,.97,.37l.02,.17h-5.31Z"/>
      <path class="cls-2" d="M172.54,72.04c-1.33,0-2.5-.27-3.51-.81s-1.79-1.29-2.35-2.27c-.56-.97-.84-2.11-.84-3.41s.28-2.44,.84-3.41,1.34-1.73,2.35-2.27c1-.54,2.17-.81,3.51-.81s2.5,.27,3.51,.81,1.79,1.29,2.35,2.27c.56,.97,.84,2.11,.84,3.41s-.28,2.43-.84,3.41c-.56,.97-1.34,1.73-2.35,2.27-1,.54-2.17,.81-3.51,.81Zm0-.27c.58,0,1.11-.15,1.58-.45,.48-.3,.89-.72,1.23-1.27,.33-.54,.59-1.2,.77-1.97s.28-1.62,.28-2.55-.09-1.79-.28-2.56c-.18-.77-.44-1.43-.77-1.97-.35-.54-.76-.97-1.23-1.27-.48-.3-1-.45-1.58-.45s-1.11,.15-1.58,.45c-.48,.3-.88,.72-1.22,1.27-.34,.54-.61,1.2-.79,1.97-.18,.77-.28,1.62-.28,2.56s.09,1.78,.28,2.55c.18,.77,.45,1.42,.79,1.97,.33,.54,.74,.97,1.22,1.27s1,.45,1.58,.45Z"/>
      <path class="cls-2" d="M189.68,72.06l-4.3-10.76c-.48-1.21-1.01-1.82-1.6-1.82h-.05v-.17h5.28v.17h-.07c-.5,0-.83,.15-1,.46s-.14,.72,.07,1.26l2.95,7.51,1.75-4.33-1.1-3.08c-.21-.6-.46-1.05-.76-1.36s-.66-.46-1.11-.46h-.03v-.17h5.35v.17h-.07c-.48,0-.79,.15-.93,.45-.14,.3-.13,.72,.05,1.27l2.55,7.51,2.85-7.5c.19-.5,.17-.91-.06-1.22s-.62-.49-1.19-.51v-.17h3.05v.17c-.3,0-.58,.14-.84,.43-.26,.29-.47,.66-.64,1.1l-4.25,11.05h-.13l-2.63-7.36-2.98,7.36h-.16Z"/>
      <path class="cls-2" d="M201.76,71.81v-.17c.4,0,.72-.12,.97-.37s.37-.57,.37-.97v-9.5c0-.4-.12-.72-.37-.97s-.57-.37-.97-.37v-.17h5.56c.8,0,1.5,.14,2.09,.41s1.05,.65,1.38,1.13c.33,.48,.49,1.05,.49,1.69,0,.81-.25,1.51-.75,2.08-.5,.58-1.18,.93-2.03,1.05,.19,.06,.41,.22,.67,.5s.51,.62,.76,1.03l2.1,3.6c.16,.26,.34,.46,.56,.61s.46,.23,.73,.23v.17h-3.45c-.16-.26-.32-.53-.49-.83-.17-.3-.33-.58-.47-.83l-1.63-3c-.2-.37-.37-.65-.51-.86s-.28-.35-.42-.42c-.14-.08-.31-.12-.52-.12h-.17v4.57c0,.4,.12,.72,.37,.97s.57,.37,.97,.37h.03v.17h-5.27Zm3.9-6.28h.85c.72,0,1.3-.28,1.72-.83,.43-.56,.64-1.28,.64-2.17s-.21-1.62-.62-2.17c-.41-.55-.96-.82-1.63-.82h-.97v6h0Z"/>
      <path class="cls-2" d="M213.77,71.81v-.17h.02c.4,0,.72-.12,.97-.37s.37-.57,.37-.97v-9.5c0-.4-.12-.72-.37-.97s-.57-.37-.97-.37h-.02v-.17h5.28v.17h-.02c-.4,0-.72,.12-.97,.37s-.37,.57-.37,.97v9.5c0,.4,.12,.72,.37,.97s.57,.37,.97,.37h.02v.17h-5.28Z"/>
      <path class="cls-2" d="M222.59,71.81l.02-.17h.02c.4,0,.72-.12,.97-.37s.37-.57,.37-.97v-10.76h-.48c-.54,0-1.08,.09-1.6,.26-.52,.17-.97,.48-1.35,.93-.38,.45-.63,1.1-.77,1.94h-.17l.47-3.37h10.38l.48,3.37h-.17c-.13-.83-.39-1.48-.78-1.93s-.84-.77-1.37-.94-1.08-.26-1.64-.26h-.43v10.76c0,.4,.12,.72,.37,.97s.57,.37,.97,.37l.02,.17h-5.31Z"/>
      <path class="cls-2" d="M231.67,71.81l.02-.17h.02c.4,0,.72-.11,.97-.32s.37-.52,.37-.92v-9.6c0-.4-.12-.72-.37-.97s-.57-.37-.97-.37l-.02-.17h8.93l.5,3.35h-.17c-.33-2.09-1.65-3.13-3.95-3.13h-1.4v4.81h1.5c.56,0,1-.17,1.33-.51s.5-.79,.5-1.34h.17v4.1h-.17c-.01-.6-.2-1.09-.57-1.47s-.85-.57-1.45-.57h-1.32v5.85c0,.79,.39,1.18,1.17,1.18h.7c1.08,0,1.93-.28,2.57-.83,.63-.56,1.04-1.43,1.22-2.62h.17l-.5,3.67h-9.25v.03Z"/>
      <path class="cls-2" d="M254.32,72.04c-1.44,0-2.71-.27-3.8-.81s-1.94-1.3-2.54-2.27c-.61-.98-.91-2.12-.91-3.41s.3-2.45,.91-3.42c.6-.97,1.46-1.72,2.57-2.25,1.11-.53,2.43-.8,3.95-.8,.37,0,.67,.01,.92,.04,.24,.03,.47,.06,.68,.09s.45,.06,.72,.09,.61,.04,1.02,.04l.5,3.33h-.17c-.12-.65-.36-1.24-.72-1.74-.36-.51-.81-.91-1.35-1.2s-1.14-.44-1.79-.44-1.24,.16-1.78,.47-1.01,.74-1.4,1.3c-.39,.57-.69,1.24-.91,2.03-.22,.78-.33,1.64-.33,2.57,0,1.23,.19,2.31,.57,3.22,.38,.92,.91,1.63,1.6,2.13,.69,.51,1.5,.76,2.43,.76,1.07,0,1.95-.32,2.64-.96,.69-.64,1.12-1.53,1.29-2.67h.17l-.48,3.6c-.52,0-.98,.02-1.38,.08-.4,.05-.79,.1-1.16,.15s-.79,.08-1.26,.08h0Z"/>
      <path class="cls-2" d="M259.57,71.81v-.17c.41,0,.74-.11,.98-.33,.24-.22,.37-.52,.37-.9v-9.68c0-.38-.13-.68-.38-.91s-.57-.34-.96-.34v-.17h5.36c1.57,0,2.93,.24,4.1,.71s2.07,1.17,2.72,2.11c.64,.93,.97,2.08,.97,3.45s-.32,2.51-.97,3.43c-.65,.92-1.56,1.62-2.72,2.09s-2.53,.71-4.08,.71h-5.39Zm5.08-.22h.3c1,0,1.87-.23,2.61-.68,.74-.46,1.31-1.13,1.73-2.03,.41-.9,.62-2.01,.62-3.33s-.21-2.43-.62-3.32-.99-1.56-1.73-2.01c-.74-.45-1.61-.68-2.61-.68h-1.47v10.86c0,.36,.09,.64,.26,.86s.47,.32,.91,.32h0Z"/>
      <path class="cls-2" d="M273.8,71.81v-.17c.4,0,.72-.12,.97-.37s.37-.57,.37-.97v-9.5c0-.4-.12-.72-.37-.97s-.57-.37-.97-.37v-.17h5.56c.8,0,1.5,.14,2.09,.41s1.05,.65,1.38,1.13c.33,.48,.49,1.05,.49,1.69,0,.81-.25,1.51-.75,2.08-.5,.58-1.18,.93-2.03,1.05,.19,.06,.41,.22,.67,.5s.51,.62,.76,1.03l2.1,3.6c.16,.26,.34,.46,.56,.61s.46,.23,.73,.23v.17h-3.45c-.16-.26-.32-.53-.49-.83-.17-.3-.33-.58-.47-.83l-1.63-3c-.2-.37-.37-.65-.51-.86s-.28-.35-.42-.42c-.14-.08-.31-.12-.52-.12h-.17v4.57c0,.4,.12,.72,.37,.97s.57,.37,.97,.37h.03v.17h-5.27Zm3.9-6.28h.85c.72,0,1.3-.28,1.72-.83,.43-.56,.64-1.28,.64-2.17s-.21-1.62-.62-2.17c-.41-.55-.96-.82-1.63-.82h-.97v6h0Z"/>
    </g>
    <path class="cls-1" d="M103.63,54.58v-.73h.29c1.74,0,3.14-.53,4.21-1.6s1.6-2.47,1.6-4.21V6.7c0-1.74-.53-3.14-1.6-4.21s-2.47-1.6-4.21-1.6h-.29V.16h23.21V.89h-.14c-1.74,0-3.14,.53-4.21,1.6s-1.6,2.47-1.6,4.21V23.52h23.93V6.7c0-1.74-.53-3.14-1.6-4.21s-2.47-1.6-4.21-1.6h-.22V.16h23.21V.89h-.22c-1.74,0-3.14,.53-4.21,1.6s-1.6,2.47-1.6,4.21V48.04c0,1.74,.53,3.14,1.6,4.21,1.06,1.06,2.47,1.6,4.21,1.6h.22v.73h-23.21v-.73h.22c1.74,0,3.14-.53,4.21-1.6s1.6-2.47,1.6-4.21V24.54h-23.93v23.5c0,1.74,.53,3.14,1.6,4.21,1.06,1.06,2.47,1.6,4.21,1.6h.14v.73h-23.21Z"/>
    <path class="cls-1" d="M190.73,55.67l-18.71-46.85c-2.08-5.27-4.4-7.9-6.96-7.9h-.22V.19h22.99V.92h-.29c-2.18,0-3.63,.67-4.35,1.99-.73,1.33-.63,3.15,.29,5.48l12.84,32.71,7.61-18.86-4.79-13.42c-.92-2.61-2.02-4.58-3.3-5.91s-2.89-1.99-4.82-1.99h-.15V.19h23.28V.92h-.29c-2.08,0-3.43,.65-4.06,1.96-.63,1.31-.56,3.14,.22,5.51l11.1,32.71,12.4-32.63c.82-2.18,.74-3.95-.25-5.33s-2.72-2.11-5.19-2.21V.2h13.27V.93c-1.31,0-2.53,.63-3.66,1.88-1.14,1.26-2.07,2.85-2.79,4.79l-18.49,48.08h-.58l-11.46-32.05-12.98,32.05h-.66Z"/>
    <path class="cls-1" d="M267,55.6c-6.19,0-11.63-1.15-16.29-3.47-4.67-2.31-8.3-5.56-10.9-9.75s-3.9-9.08-3.9-14.65,1.3-10.51,3.9-14.65c2.6-4.15,6.28-7.36,11.04-9.65s10.41-3.43,16.94-3.43c1.57,0,2.88,.06,3.93,.18s2.02,.25,2.93,.39,1.94,.27,3.11,.39c1.17,.12,2.63,.18,4.39,.18l2.14,14.29h-.71c-.52-2.81-1.56-5.3-3.11-7.47s-3.48-3.88-5.79-5.15c-2.31-1.26-4.87-1.89-7.68-1.89s-5.31,.67-7.65,2c-2.33,1.33-4.34,3.19-6,5.57-1.67,2.43-2.97,5.32-3.89,8.68s-1.39,7.04-1.39,11.04c0,5.29,.81,9.9,2.43,13.83,1.62,3.93,3.91,6.98,6.86,9.15,2.95,2.17,6.43,3.25,10.43,3.25,4.57,0,8.35-1.37,11.33-4.11,2.98-2.74,4.82-6.56,5.54-11.47h.71l-2.07,15.44c-2.24,0-4.22,.11-5.93,.32s-3.37,.43-4.97,.64c-1.6,.21-3.39,.32-5.39,.32v.02Z"/>
    <rect class="cls-1" x="0" y=".08" width="92.38" height="6.1"/>
    <rect class="cls-2" x="57.04" y="17.29" width="35.35" height="6.1"/>
    <rect class="cls-2" y="17.29" width="51.19" height="6.1"/>
    <rect class="cls-1" x="0" y="33.34" width="92.38" height="6.1"/>
    <rect class="cls-2" x="0" y="50.55" width="47.58" height="6.1"/>
    <rect class="cls-2" x="53.42" y="50.55" width="38.96" height="6.1"/>
    <rect class="cls-1" x="0" y="65.96" width="24.1" height="6.1"/>
  </g>
</svg>